<?xml version="1.0" standalone="no"?>
<!DOCTYPE svg PUBLIC "-//W3C//DTD SVG 20010904//EN"
 "http://www.w3.org/TR/2001/REC-SVG-20010904/DTD/svg10.dtd">
<svg version="1.0" xmlns="http://www.w3.org/2000/svg"
 width="1008.000000pt" height="1008.000000pt" viewBox="0 0 1008.000000 1008.000000"
 preserveAspectRatio="xMidYMid meet">
<metadata>
Created by potrace 1.14, written by Peter Selinger 2001-2017
</metadata>
<g transform="translate(0.000000,1008.000000) scale(0.100000,-0.100000)"
fill="#000000" stroke="none">
<path d="M3404 8244 c-49 -20 -113 -65 -169 -119 -61 -59 -167 -212 -215 -310
-14 -27 -28 -51 -32 -53 -5 -2 -8 -9 -8 -16 0 -7 -6 -26 -14 -42 -17 -33 -59
-127 -61 -134 -1 -7 -44 -121 -52 -140 -3 -8 -7 -17 -8 -20 -1 -3 -5 -12 -8
-20 -5 -12 -30 -92 -87 -283 -5 -15 -9 -31 -10 -35 0 -4 -3 -18 -6 -32 -17
-80 -21 -73 38 -65 29 3 69 8 88 10 75 9 126 16 140 21 9 2 31 37 50 77 48
100 144 265 218 372 101 148 193 345 216 465 3 14 8 36 11 50 13 57 20 171 16
266 -1 25 -5 30 -27 30 -15 0 -51 -10 -80 -22z"/>
<path d="M3911 7988 c-49 -12 -99 -36 -156 -73 -114 -73 -221 -179 -364 -361
-18 -22 -141 -206 -141 -210 0 -3 -12 -23 -26 -45 -34 -55 -63 -106 -118 -213
l-46 -90 53 -29 c28 -16 57 -30 64 -31 7 -1 15 -5 19 -9 10 -10 136 -69 153
-72 41 -6 230 155 278 236 10 16 21 29 25 29 4 0 8 7 8 15 0 8 4 15 8 15 12 0
86 153 107 220 9 30 19 62 22 70 3 8 7 20 8 25 2 6 11 28 20 50 10 22 19 46
21 52 4 20 138 281 183 357 22 39 38 72 36 74 -12 12 -89 7 -154 -10z"/>
<path d="M2898 6925 c-2 -1 -34 -5 -72 -9 -37 -3 -77 -11 -87 -17 -10 -5 -19
-7 -19 -3 0 3 -7 1 -15 -6 -8 -7 -15 -10 -15 -7 0 8 -114 -39 -185 -76 -80
-42 -203 -126 -295 -201 -149 -122 -330 -321 -383 -420 -25 -46 -25 -51 -11
-85 20 -49 54 -87 126 -144 15 -12 28 -27 28 -33 0 -6 13 -28 30 -50 16 -21
30 -42 30 -46 0 -13 83 -93 130 -125 84 -57 194 -92 303 -96 31 -1 57 -4 57
-7 0 -3 37 -5 83 -6 178 -2 280 -29 283 -75 4 -69 16 -163 22 -182 4 -12 7
-31 7 -42 -1 -11 3 -26 8 -32 5 -7 7 -13 4 -13 -3 0 4 -37 14 -82 11 -46 22
-92 24 -103 4 -19 24 -99 30 -120 1 -5 3 -13 4 -17 1 -4 7 -22 12 -40 6 -18
12 -40 14 -48 2 -8 11 -39 19 -67 8 -29 12 -53 9 -53 -3 0 -1 -6 5 -12 5 -7
13 -26 16 -43 3 -16 14 -66 25 -110 26 -98 35 -165 34 -230 -1 -77 -41 -102
-208 -130 -16 -3 -43 -7 -60 -10 -44 -7 -209 -18 -297 -19 -43 -1 -78 -3 -78
-6 0 -3 -13 -5 -30 -5 -16 0 -30 3 -30 7 0 4 -12 3 -27 0 -37 -9 -376 -7 -391
2 -7 4 -12 3 -12 -3 0 -6 -7 -8 -16 -4 -31 12 -179 9 -211 -4 -18 -7 -33 -11
-33 -8 0 3 -10 -1 -22 -9 -13 -8 -26 -15 -30 -16 -17 -1 -121 -44 -238 -97
-97 -44 -293 -121 -350 -137 -54 -15 -82 -20 -178 -32 -26 -3 -60 -8 -77 -10
-16 -2 -59 -6 -95 -9 -146 -10 -170 -31 -130 -115 35 -74 62 -85 205 -84 105
0 208 9 226 20 3 1 28 6 55 9 27 4 78 14 114 22 36 8 76 17 90 20 14 2 44 8
68 14 23 5 59 12 80 15 20 3 40 8 44 10 4 3 22 7 40 9 40 6 73 13 73 15 0 1
11 3 25 5 14 2 39 6 55 9 17 3 55 10 85 15 56 9 275 8 342 -3 21 -4 66 -8 100
-11 35 -2 63 -5 63 -5 0 -4 186 -20 315 -27 147 -9 555 -8 685 0 156 11 271
22 355 37 30 5 75 12 100 15 137 19 380 79 559 137 69 22 130 41 135 43 6 1
18 5 26 8 23 10 179 49 250 63 14 3 41 9 60 13 19 5 42 9 50 9 8 0 26 3 40 6
14 3 43 8 65 11 22 3 57 8 78 11 151 21 298 29 577 28 316 0 400 -4 418 -17 8
-6 12 -5 12 2 0 7 3 10 8 7 4 -2 43 -7 87 -11 107 -8 151 -13 205 -20 25 -4
56 -6 69 -6 12 1 27 -2 32 -5 5 -3 38 -7 72 -10 34 -2 78 -6 97 -9 19 -2 62
-7 95 -10 33 -4 76 -9 95 -12 19 -2 64 -4 100 -2 186 7 182 7 295 -24 61 -16
167 -64 255 -114 60 -34 244 -154 250 -163 3 -4 19 -16 35 -26 28 -18 144
-103 155 -114 3 -3 23 -18 45 -35 22 -16 42 -32 45 -35 13 -15 154 -113 188
-129 22 -12 70 -21 121 -25 46 -4 88 -9 92 -12 9 -5 29 -10 84 -19 11 -2 40
-9 65 -15 25 -7 52 -13 60 -15 8 -2 47 -13 85 -25 39 -11 81 -23 94 -26 25 -5
163 -50 196 -64 11 -4 47 -18 80 -31 145 -54 203 -115 385 -399 5 -8 30 -45
54 -83 25 -37 45 -70 45 -72 0 -3 12 -20 26 -39 14 -18 25 -36 25 -39 0 -6 99
-157 110 -167 3 -3 18 -22 33 -43 42 -55 67 -77 115 -99 70 -32 128 -10 169
62 53 94 34 140 -119 292 -59 59 -108 110 -108 114 0 5 -14 41 -77 204 -14 36
-26 70 -28 75 -1 6 -8 24 -14 40 -7 17 -14 35 -15 40 -2 6 -8 21 -14 35 -11
26 -24 60 -27 73 -2 4 -4 9 -5 12 -1 3 -3 8 -5 13 -3 11 -16 44 -25 67 -5 11
-23 58 -41 105 -53 144 -49 138 -94 146 -22 3 -49 8 -60 10 -11 3 -36 7 -55
10 -19 3 -46 7 -60 10 -14 2 -41 7 -60 10 -47 8 -65 12 -65 14 0 1 -13 4 -28
6 -103 17 -354 122 -392 164 -10 11 -22 20 -27 20 -28 0 -149 156 -178 230 -7
19 -18 41 -23 48 -5 7 -7 15 -4 18 3 3 1 18 -5 33 -6 14 -12 35 -13 46 -2 11
-6 38 -9 60 -4 22 -8 99 -11 170 -10 273 -25 395 -60 479 -9 20 -14 37 -13 38
1 2 -11 23 -26 48 -41 65 -139 158 -231 217 -44 29 -86 57 -92 63 -7 6 -13 8
-13 4 0 -3 -6 -2 -12 4 -15 11 -189 99 -258 130 -183 81 -466 184 -705 257
-66 20 -127 39 -135 42 -8 4 -24 8 -35 10 -28 6 -38 9 -55 16 -13 5 -120 37
-145 43 -5 1 -71 19 -145 39 -74 20 -146 38 -160 41 -14 3 -29 7 -35 8 -5 1
-19 5 -30 9 -11 3 -31 8 -45 11 -31 6 -44 9 -150 34 -74 18 -131 31 -165 38
-5 1 -35 6 -65 13 -67 13 -104 20 -150 27 -19 2 -46 7 -60 10 -14 2 -47 7 -75
10 -27 2 -61 7 -75 9 -14 3 -45 8 -70 11 -25 3 -56 7 -70 9 -14 2 -56 7 -95
11 -68 6 -100 11 -100 14 0 1 -20 3 -45 5 -53 5 -118 11 -192 19 -29 3 -73 8
-98 11 -25 2 -67 7 -95 9 -135 15 -165 17 -230 21 -39 3 -93 7 -120 10 -90 9
-278 18 -424 19 l-143 1 -20 50 c-11 28 -25 61 -31 75 -6 14 -11 27 -12 30 -1
5 -32 64 -57 110 -43 79 -80 138 -100 162 -13 14 -30 36 -38 49 -14 21 -151
161 -181 185 -43 33 -126 84 -136 84 -7 0 -13 5 -13 12 0 6 -3 9 -6 5 -4 -3
-23 2 -43 12 -47 24 -90 35 -171 47 -65 9 -89 11 -92 9z m-213 -356 c90 -37
102 -140 23 -189 -64 -39 -164 -15 -200 48 -60 102 53 192 177 141z"/>
<path d="M8095 5728 c-44 -22 -105 -76 -105 -92 0 -6 -7 -24 -15 -39 -13 -26
-20 -68 -16 -108 1 -16 52 -96 89 -140 9 -11 25 -30 35 -42 10 -12 36 -44 59
-72 63 -75 339 -345 353 -345 22 0 104 89 131 141 13 27 22 49 20 49 -3 0 -1
14 4 31 31 107 -3 275 -81 405 -35 57 -152 174 -175 174 -7 0 -14 3 -16 8 -7
16 -112 44 -176 47 -52 3 -76 -1 -107 -17z"/>
<path d="M2018 4745 c-2 -2 -35 -6 -73 -9 -62 -5 -110 -12 -110 -16 0 0 -22
-3 -50 -5 -27 -2 -61 -7 -75 -10 -14 -3 -41 -8 -60 -11 -19 -2 -57 -8 -85 -14
-27 -5 -68 -11 -90 -14 -22 -3 -51 -8 -64 -10 -87 -18 -298 -28 -316 -15 -6 4
-17 4 -24 0 -7 -5 -27 -6 -45 -2 -40 8 -251 6 -296 -3 -119 -24 -95 -100 55
-176 78 -39 203 -79 241 -75 56 4 169 17 189 21 10 2 37 6 60 9 22 4 51 8 65
10 14 2 45 7 70 10 25 3 59 7 75 9 158 21 338 28 397 14 21 -4 54 -10 73 -13
19 -2 51 -9 72 -14 51 -14 230 -51 271 -56 18 -2 42 -7 53 -10 21 -7 46 -12
99 -19 19 -3 51 -8 70 -11 121 -19 197 -26 308 -28 57 -1 106 0 109 3 5 5 11
6 37 9 40 3 78 122 61 191 -15 60 -31 96 -47 106 -7 5 -67 10 -133 11 -66 0
-145 4 -175 8 -30 3 -68 8 -85 9 -16 2 -57 9 -90 15 -33 7 -71 14 -85 16 -21
3 -167 34 -245 51 -11 2 -40 7 -65 10 -25 3 -55 7 -67 9 -12 2 -23 2 -25 0z"/>
<path d="M8719 3148 c-8 -24 -3 -66 13 -123 11 -38 21 -74 23 -80 18 -81 177
-373 238 -439 63 -68 137 -84 295 -64 6 1 12 6 12 11 0 6 3 8 6 4 15 -14 55
44 58 85 5 70 -28 117 -128 180 -55 35 -68 48 -92 91 -21 40 -26 62 -26 135 0
40 -4 62 -12 62 -6 0 -27 10 -46 22 -19 12 -37 22 -40 23 -3 1 -36 16 -75 34
-97 46 -141 61 -186 61 -22 0 -39 -1 -40 -2z"/>
</g>
</svg>
